<?xml version="1.0" encoding="UTF-8"?>
<svg id="Layer_2" data-name="Layer 2" xmlns="http://www.w3.org/2000/svg" viewBox="0 0 198.47 198.47">
  <defs>
    <style>
      .cls-1 {
        fill: none;
        stroke: #1c4afd;
        stroke-miterlimit: 10;
        stroke-width: 2.69px;
      }

      .cls-2 {
        fill: #d8feff;
      }

      .cls-2, .cls-3, .cls-4, .cls-5 {
        stroke-width: 0px;
      }

      .cls-3 {
        fill: #1c4afd;
      }

      .cls-4 {
        fill: #fc06f8;
      }

      .cls-5 {
        fill: #d6fff1;
      }
    </style>
  </defs>
  <g id="Layer_1-2" data-name="Layer 1">
    <rect class="cls-3" x="0" y="0" width="198.47" height="198.47" rx="99.23" ry="99.23"/>
    <path class="cls-2" d="M166.54,99.23s-30.13,28.01-67.31,28.01-67.31-28.01-67.31-28.01c0,0,30.14-28.01,67.31-28.01s67.31,28.01,67.31,28.01Z"/>
    <path class="cls-1" d="M161.22,99.23s-27.75,24.79-61.99,24.79-61.99-24.79-61.99-24.79c0,0,27.75-24.79,61.99-24.79s61.99,24.79,61.99,24.79Z"/>
    <g>
      <path class="cls-4" d="M99.23,121.91c12.52,0,22.67-10.15,22.67-22.67s-10.15-22.67-22.67-22.67-22.67,10.15-22.67,22.67,10.15,22.67,22.67,22.67Z"/>
      <path class="cls-3" d="M104.49,100.5c-1.03-2.47-3.05-4.99-6.02-4.24-2.74.52-4.11,3.68-3.13,6.16,1.24,3.95,6.63,5.14,9.46,2.18,2.79-2.81,1.87-7.83-1.03-10.22-5.53-4.62-13.7-.45-13.27,6.76.14,3.81,2.53,7.48,6.01,9.06,4.57,2.25,10.66.94,13.54-3.35,4.24-5.93,1.35-14.7-4.76-18.14-7.63-4.4-17.6-.07-19.76,8.44-2.3,8.97,4.46,18.78,13.6,20.02,9.3,1.67,18.48-5.41,19.48-14.76,1.46-14.34-12.52-25.55-26.22-20.54-8.12,2.92-12.77,10.21-13.45,18.65.24-2.71.6-5.47,1.65-8.03,4.18-10.73,17.51-15.93,27.85-10.79,7.63,3.75,12.62,12.37,11.73,20.88-1.71,16.07-21.8,22.43-32.43,10.25-5.83-6.45-6.48-17.57.24-23.64,3.18-3.02,7.7-4.6,12.07-4.14,7.55.65,13.41,7.01,13.85,14.52.39,5.92-3.67,11.89-9.57,13.13-9.33,2.24-18.06-6.63-14.53-15.83,3.05-7.59,14.37-7.52,17.15.22,2.47,6.29-3.48,12.47-9.59,8.88-2.4-1.57-3.6-4.93-2.24-7.54.93-1.97,3.33-2.95,5.39-2.39,2.11.54,3.22,2.62,3.98,4.47h0Z"/>
      <path class="cls-3" d="M99.23,107.9c4.79,0,8.67-3.88,8.67-8.67s-3.88-8.67-8.67-8.67-8.67,3.88-8.67,8.67,3.88,8.67,8.67,8.67Z"/>
      <path class="cls-5" d="M96.1,97.71c1.33,0,2.41-1.07,2.41-2.41s-1.07-2.41-2.41-2.41-2.41,1.07-2.41,2.41,1.07,2.41,2.41,2.41Z"/>
    </g>
  </g>
</svg>